<?xml version="1.0" encoding="UTF-8"?>
<svg id="Layer_1" xmlns="http://www.w3.org/2000/svg" version="1.1" viewBox="0 0 775.11 298.02">
  <!-- Generator: Adobe Illustrator 29.1.0, SVG Export Plug-In . SVG Version: 2.1.0 Build 142)  -->
  <path d="M.66,252.1v-12.13c12.79.98,25.24,1.64,32.46,1.64,29.5,0,44.26-10.49,44.26-31.8,0-15.08-8.2-25.24-28.52-37.37l-12.46-7.54C11.47,149.82,0,135.72,0,117.36c0-23.93,19.67-39.67,50.81-39.67,6.56,0,16.39.66,25.57,1.64v11.47c-10.16-.98-17.7-1.31-22.95-1.31-26.55,0-40.98,10.16-40.98,27.86,0,13.77,9.18,23.93,29.83,36.72l13.44,8.2c23.6,14.42,34.09,27.87,34.09,47.21,0,27.54-20.98,44.26-56.71,44.26-7.21,0-19.67-.66-32.46-1.64Z"/>
  <path d="M185.55,76.06c39.34,0,62.29,25.9,62.29,70.81v105.23h-12.46v-104.91c0-38.36-17.7-59.01-49.83-59.01s-49.83,20.65-49.83,59.01v104.91h-12.46v-105.23c0-44.91,22.62-70.81,62.29-70.81Z"/>
  <path d="M775.11,79.33l-76.02,183.84c-8.72,21.1-29.3,34.86-52.13,34.86h-14.85v-12.46h14.53c18.01,0,34.28-10.78,41.29-27.37l14.4-34.03c-1.01.03-2.04,0-3.06-.13-6.49-.74-12.68-4.59-15.89-11.57-.03-.06-.06-.14-.09-.21l-60.62-132.94h14.11l57.34,128.23c2.96,6.63,12.44,6.48,15.18-.25l52.05-127.98h13.76Z"/>
  <path d="M541.35,152.4l72.81-73.06h-17.7l-64.24,65.62c-7.88,8.05-8.05,20.88-.38,29.14l72.49,78.01h17.7l-80.87-85.7c-3.73-3.95-3.65-10.16.19-14.01Z"/>
  <rect x="504.51" width="12.46" height="252.1"/>
  <path d="M370.62,76.06c-49.19,0-85.42,38.07-85.42,89.85s36.23,89.47,85.42,89.47c20.54,0,39.68-6.58,54.37-19.36v-16.67c-13.19,15.56-32.53,23.58-53.58,23.58-42.29,0-73.43-32.78-73.43-77.04s31.14-77.37,73.43-77.37c38.36,0,71.14,26.55,71.14,77.37v86.22h10.82v-86.19c0-59.01-38.13-89.85-82.75-89.85Z"/>
</svg>